<svg width="443" height="167" viewBox="0 0 443 167" fill="none" xmlns="http://www.w3.org/2000/svg">
<path d="M139.961 68.5428C138.065 60.5637 132.403 53.6262 125.419 49.4387C116.57 44.1418 105.893 42.7824 95.721 43.2512C86.9762 43.6418 78.273 45.2147 70.2105 48.6887C55.4501 55.0533 44.1324 68.9699 45.3512 85.6418C45.6741 89.8658 46.8199 94.0116 49.0022 97.6262C51.5855 101.85 55.273 104.892 59.2522 107.715C67.023 113.189 77.0907 121.918 74.2262 132.256C73.8303 132.183 73.4345 132.116 73.0074 132.043C70.1741 131.543 69.2105 136.48 72.0751 137.085C80.3876 138.84 88.9501 139.626 97.4397 138.949C98.872 138.84 100.664 137.876 100.518 136.121C99.7314 126.71 103.096 117.267 110.19 110.902C113.919 107.574 118.289 105.105 122.408 102.277C126.205 99.6678 129.679 96.7668 132.653 93.2616C138.601 86.5012 142.075 77.522 139.961 68.5428ZM127.783 90.0428C120.867 97.772 110.622 101.314 103.742 109.038C97.7262 115.803 94.6428 124.423 94.6428 133.329C88.4085 133.689 82.247 133.475 76.0491 132.579C78.273 126.428 76.5543 119.486 72.898 114.012C70.3928 110.256 67.0595 107.355 63.5491 104.569C60.148 101.887 56.4918 99.2355 54.2366 95.4074C46.5335 82.423 53.6637 65.9647 65.1949 58.0585C71.9293 53.4439 79.9553 51.0116 87.9449 49.798C97.1533 48.4022 107.112 48.4022 116.033 51.4439C123.664 54.0533 130.612 59.4908 133.513 67.2199C136.56 75.3762 133.372 83.8189 127.783 90.0428Z" fill="#E29578"/>
<path d="M99.0491 95.121C95.8616 94.6574 94.1793 97.272 93.0699 99.8085C93.0334 99.772 93.0334 99.772 92.997 99.7356C95.8251 94.5481 97.5074 87.3606 93.6428 82.6366C92.8876 81.7095 91.5282 81.7772 90.6689 82.4595C88.1584 84.4283 87.7678 87.7512 87.4814 90.7564C87.1949 93.5481 87.2626 96.4491 88.3407 99.022C87.9814 99.5585 87.622 100.058 87.1949 100.527C86.0439 96.0168 83.0387 91.3293 77.8407 93.6574C73.1116 95.8033 72.6116 102.741 76.622 105.782C78.8095 107.428 81.247 107.824 83.6116 107.355C83.8616 113.689 82.8564 119.772 81.4605 125.923C81.1012 127.428 83.0751 128.038 83.7157 126.642C83.7887 126.496 83.8251 126.392 83.898 126.246C84.3251 127.892 87.0855 128.428 87.6584 126.392C88.9137 121.777 90.3095 117.194 91.8147 112.652C92.5282 110.543 93.247 108.433 93.997 106.319C94.2157 105.715 94.4293 105.069 94.6428 104.423C95.148 104.496 95.648 104.532 96.1845 104.496C98.7262 104.319 101.237 102.741 101.987 100.241C102.669 98.0585 101.559 95.4804 99.0491 95.121ZM91.4918 88.7199C91.6324 90.1158 91.4553 91.5793 91.0595 93.0116C91.0959 92.5845 91.0959 92.1522 91.1689 91.7251C91.2418 90.8658 91.2782 89.7564 91.4918 88.7199ZM78.9189 99.772C79.4189 97.8397 80.9241 97.7356 81.997 99.3814C82.6793 100.418 83.0387 101.631 83.2887 102.887C83.0387 102.923 82.7522 102.96 82.4657 102.96C80.5647 103.064 78.3459 101.991 78.9189 99.772ZM87.0855 115.48C87.622 112.225 87.8355 108.897 87.7991 105.678C89.0178 104.892 90.1324 103.887 91.0282 102.777C91.2053 102.96 91.4189 103.1 91.6012 103.246C89.9866 107.251 88.4814 111.366 87.0855 115.48ZM98.5855 99.7043C98.2262 100.595 96.8668 101.095 95.898 101.095C96.1116 100.631 96.3303 100.204 96.5439 99.772C96.7939 99.1679 97.1897 98.6626 97.7626 98.272C98.872 98.4126 99.1584 98.8814 98.5855 99.7043Z" fill="#E29578"/>
<path d="M96.2578 143.6C94.3568 142.809 92.1381 142.881 90.0964 142.777C87.836 142.668 85.5808 142.631 83.3256 142.741C79.3099 142.918 74.8672 142.991 71.1068 144.423C69.138 145.173 70.2474 147.746 71.862 147.996C75.7995 148.569 79.9558 148.105 83.9714 148.392C85.9037 148.533 87.8724 148.678 89.8099 148.928C91.888 149.178 93.8568 149.678 95.9714 149.392C99.1953 148.965 98.7266 144.637 96.2578 143.6Z" fill="#E29578"/>
<path d="M90.8096 152.397C88.195 151.074 84.471 151.611 81.6377 151.611C78.2731 151.611 74.9762 151.861 71.6429 152.329C69.6012 152.611 70.2471 155.298 71.9294 155.616C74.3304 156.048 76.695 156.439 79.096 156.798C78.3096 158.121 77.9137 159.663 78.1637 161.053C79.1325 166.277 85.6533 168.355 89.8773 165.564C93.9294 162.808 96.0752 155.012 90.8096 152.397ZM84.9346 159.913C83.6794 159.73 85.1169 158.694 85.9033 158.48C86.4033 158.334 86.7627 158.084 87.0492 157.767C87.1585 157.767 87.2262 157.73 87.195 157.694C87.7679 158.944 85.8304 160.053 84.9346 159.913Z" fill="#E29578"/>
<path d="M72.1117 33.1989C72.6117 35.8812 76.5909 35.4489 76.7679 32.8031C77.1638 27.5791 76.195 22.0687 75.7992 16.85C75.4086 11.6937 75.1898 6.50623 74.4763 1.39165C74.1898 -0.644813 70.9294 -0.358355 70.8929 1.6781C70.7471 6.97498 71.1429 12.3031 71.3252 17.6C71.5023 22.7146 71.1794 28.1521 72.1117 33.1989Z" fill="#E29578"/>
<path d="M36.4294 52.9074C34.0648 51.5844 31.7731 50.1886 29.5179 48.6886C25.0752 45.7563 20.846 42.4646 16.8721 38.923C14.6846 36.9542 11.1742 39.923 13.3617 42.0324C17.4085 45.9334 21.6689 49.548 26.2575 52.7667C28.4398 54.3396 30.7002 55.8084 33.0283 57.2042C35.3929 58.6313 37.9346 60.5271 40.7314 60.7459C42.8408 60.923 43.9867 58.2407 42.6273 56.7355C41.0492 54.949 38.5075 54.0896 36.4294 52.9074Z" fill="#E29578"/>
<path d="M32.7418 88.0064C35.2835 87.2876 35.1064 83.496 32.346 83.3553C27.0803 83.0324 21.3824 84.6418 16.2991 85.9647C13.7522 86.6418 11.2835 87.3606 8.80949 88.2199C6.30428 89.0793 3.61679 89.8293 1.46574 91.4022C-0.289465 92.6887 1.46574 94.9803 3.18449 94.7668C5.58553 94.4803 7.91366 93.4074 10.2418 92.6887C12.7522 91.9387 15.2574 91.2616 17.7991 90.6887C22.6741 89.5793 27.8668 89.3658 32.7418 88.0064Z" fill="#E29578"/>
<path d="M122.372 35.6991C126.888 27.7616 132.221 20.6418 139.101 14.5949C141.898 12.1261 138.028 7.79802 135.268 10.2668C128.07 16.7772 122.122 24.7876 118.539 33.8397C117.68 36.0949 121.153 37.8136 122.372 35.6991Z" fill="#E29578"/>
<path d="M177.539 64.7875C172.273 64.6052 166.904 66.4698 162.029 68.2563C156.977 70.1156 152.357 72.6573 148.06 75.8396C146.159 77.2354 148.31 80.2771 150.352 79.2042C154.648 76.8761 159.164 74.8031 163.82 73.2302C168.477 71.6521 173.315 71.1521 177.971 69.725C180.549 68.9334 180.513 64.8917 177.539 64.7875Z" fill="#E29578"/>
<path d="M34.8516 115.657C28.6224 121.918 22.9974 128.715 18.0859 136.012C15.9766 139.126 21.0234 142.418 22.9609 139.235C27.2578 132.006 32.1693 125.173 37.7214 118.876C39.513 116.876 36.862 113.652 34.8516 115.657Z" fill="#E29578"/>
<path d="M162.674 133.512C158.878 130.538 154.544 128.142 150.456 125.569C146.409 122.991 142.325 120.058 137.992 117.949C136.237 117.09 133.659 119.272 135.482 120.845C139.138 124.027 143.367 126.642 147.341 129.397C151.424 132.22 155.471 135.407 159.81 137.84C162.747 139.449 165.325 135.548 162.674 133.512Z" fill="#E29578"/>
<path d="M234.485 57.6278C227.469 56.7424 220.448 56.6174 213.37 57.3726C207.365 57.9455 207.297 67.4247 213.37 66.7945C215.266 66.607 217.099 66.5445 218.933 66.4142C218.365 75.7111 217.86 84.9403 217.287 94.1695C216.907 100.3 226.391 100.237 226.771 94.1695C227.339 85.0028 227.844 75.7736 228.417 66.5445C230.438 66.6695 232.459 66.857 234.485 67.1122C240.552 67.9351 240.49 58.4507 234.485 57.6278Z" fill="#186069"/>
<path d="M269.253 56.9351C268.18 62.3049 267.295 67.8049 266.535 73.2424H257.748C257.873 71.8518 258.066 70.5237 258.191 69.1956C258.571 66.2893 258.509 62.8101 259.519 60.0914C261.67 54.4039 252.503 51.8726 250.352 57.5653C249.342 60.4091 249.342 63.8883 249.024 66.857C248.581 70.2112 248.201 73.5601 247.821 76.9091C247.003 83.8622 246.18 90.8206 245.357 97.7737C244.66 103.779 254.144 103.716 254.842 97.7737C255.41 92.7164 256.04 87.7216 256.613 82.7268H265.337C264.894 86.6435 264.514 90.6279 264.196 94.5497C263.753 100.617 273.238 100.617 273.68 94.5497C274.566 82.7268 276.144 71.0289 278.42 59.4612C279.561 53.456 270.456 50.9247 269.253 56.9351Z" fill="#186069"/>
<path d="M287.713 62.18C286.448 73.5602 285.5 85.0029 284.87 96.5081C284.489 102.576 293.974 102.576 294.354 96.5081C294.984 85.0029 295.932 73.5602 297.198 62.18C297.828 56.1123 288.349 56.1748 287.713 62.18Z" fill="#186069"/>
<path d="M328.238 62.81C327.228 69.6381 326.025 76.4037 324.759 83.1693L319.134 70.336C317.488 66.4141 311.483 67.8048 310.473 71.4714C307.816 81.336 305.54 91.2631 303.645 101.315C302.509 107.258 311.676 109.846 312.811 103.841C313.822 98.2787 315.025 92.7787 316.29 87.2787C318.311 91.8933 320.27 96.5079 322.296 101.06C323.936 104.852 330.134 103.716 330.957 99.9871C333.483 88.4766 335.634 76.9714 337.342 65.3412C338.228 59.336 329.061 56.8048 328.238 62.81Z" fill="#186069"/>
<path d="M372.175 61.232C375.274 55.982 367.055 51.1799 364.019 56.4247C361.998 59.9039 359.154 65.2789 355.42 67.4247C355.612 63.3831 355.737 59.2737 355.737 55.1643C355.8 49.0289 346.315 49.0289 346.253 55.1643C346.19 67.2372 345.435 79.3101 343.852 91.2633C343.472 93.8518 344.42 96.3206 347.138 97.1383C349.352 97.7737 352.638 96.3206 352.956 93.7893C353.716 88.5445 354.284 83.232 354.727 77.9195C358.013 80.956 360.102 85.1903 360.477 89.6174C361.05 95.6851 370.529 95.7476 369.961 89.6174C369.394 83.2945 367.055 77.732 363.133 73.1799C366.862 69.8935 369.711 65.4664 372.175 61.232Z" fill="#186069"/>
<path d="M403.848 80.6383C398.916 81.0185 394.046 81.7164 389.244 82.7893C390.067 74.9508 390.822 67.1748 391.583 59.3987C392.15 53.331 382.671 53.3935 382.098 59.3987C381.15 69.2581 380.14 79.1227 379.192 88.9873C378.874 92.081 382.478 94.357 385.197 93.5393C391.327 91.7685 397.525 90.6279 403.848 90.1227C409.916 89.68 409.978 80.1956 403.848 80.6383Z" fill="#186069"/>
<path d="M437.987 87.7216C433.623 87.5966 429.263 87.7216 424.961 88.1643C425.279 85.7633 425.659 83.357 425.972 80.8935C428.123 80.8935 430.274 81.0185 432.419 81.2112C435.013 81.4612 437.164 78.8674 437.164 76.4664C437.164 73.6851 435.013 71.9768 432.419 71.7268C430.779 71.6018 429.133 71.4716 427.43 71.4716C427.805 69.0081 428.248 66.5445 428.628 64.1383C431.852 64.1383 435.013 64.2008 438.237 64.456C444.305 64.8362 444.305 55.3518 438.237 54.9716C433.685 54.6591 429.071 54.5914 424.518 54.7216C422.748 54.7841 421.487 55.6695 420.727 56.8049C420.409 57.3101 420.159 57.9456 420.029 58.7008C417.946 70.2737 416.237 81.9039 414.784 93.6018C414.341 96.9508 418.133 98.5966 420.789 98.1539C426.477 97.2685 432.232 97.0133 437.987 97.206C444.055 97.456 444.055 87.9716 437.987 87.7216Z" fill="#186069"/>
<path d="M246.398 138.078H242.711L240.107 128.349L237.461 138.078H233.753L229.148 124.016H232.961L235.732 134.349L238.419 124.016H241.919L244.669 134.349L247.378 124.016H251.044L246.398 138.078Z" fill="#186069"/>
<path d="M265.77 123.891C267.947 123.891 269.759 124.573 271.207 125.933C272.666 127.297 273.395 128.99 273.395 131.016C273.395 133.073 272.666 134.797 271.207 136.183C269.749 137.558 267.936 138.245 265.77 138.245C263.603 138.245 261.791 137.558 260.332 136.183C258.884 134.808 258.166 133.089 258.166 131.016C258.166 128.974 258.884 127.281 260.332 125.933C261.791 124.573 263.603 123.891 265.77 123.891ZM265.811 126.87C264.712 126.87 263.775 127.276 262.999 128.078C262.218 128.87 261.832 129.86 261.832 131.037C261.832 132.219 262.218 133.219 262.999 134.037C263.791 134.844 264.728 135.245 265.811 135.245C266.895 135.245 267.811 134.844 268.561 134.037C269.322 133.219 269.707 132.219 269.707 131.037C269.707 129.86 269.322 128.87 268.561 128.078C267.811 127.276 266.895 126.87 265.811 126.87Z" fill="#186069"/>
<path d="M290.554 138.078L288.45 134.12H285.637V138.078H282.075V124.016H288.366C290.226 124.016 291.663 124.443 292.679 125.287C293.689 126.136 294.2 127.344 294.2 128.912C294.2 131.078 293.351 132.589 291.658 133.433L294.616 138.078H290.554ZM285.637 131.308H288.366C289.142 131.308 289.741 131.115 290.158 130.724C290.585 130.339 290.804 129.776 290.804 129.037C290.804 128.318 290.585 127.766 290.158 127.391C289.741 127.016 289.142 126.828 288.366 126.828H285.637V131.308Z" fill="#186069"/>
<path d="M312.585 138.078L308.856 132.558L306.981 134.62V138.078H303.418V124.016H306.981V130.099L312.377 124.016H316.523L311.293 129.828L316.856 138.078H312.585Z" fill="#186069"/>
<path d="M330.62 123.849C332.729 123.849 334.578 124.37 336.161 125.411L334.828 128.203C334.089 127.776 333.297 127.427 332.453 127.161C331.604 126.885 330.896 126.745 330.328 126.745C329.286 126.745 328.766 127.088 328.766 127.766C328.766 128.213 329.021 128.568 329.536 128.828C330.047 129.094 330.667 129.323 331.391 129.516C332.125 129.713 332.854 129.948 333.578 130.224C334.312 130.505 334.932 130.953 335.432 131.578C335.943 132.193 336.203 132.963 336.203 133.891C336.203 135.255 335.672 136.318 334.62 137.078C333.562 137.828 332.214 138.203 330.578 138.203C329.411 138.203 328.255 138.005 327.12 137.599C325.979 137.198 324.984 136.651 324.141 135.953L325.536 133.203C326.245 133.818 327.078 134.323 328.036 134.724C329.005 135.115 329.87 135.307 330.62 135.307C331.203 135.307 331.651 135.203 331.974 134.995C332.292 134.786 332.453 134.484 332.453 134.078C332.453 133.693 332.266 133.365 331.891 133.099C331.526 132.838 331.068 132.641 330.516 132.516C329.974 132.391 329.375 132.224 328.724 132.016C328.083 131.797 327.484 131.557 326.932 131.307C326.391 131.047 325.932 130.635 325.557 130.078C325.193 129.526 325.016 128.859 325.016 128.078C325.016 126.802 325.526 125.781 326.557 125.016C327.583 124.24 328.937 123.849 330.62 123.849Z" fill="#186069"/>
<path d="M357.94 138.078H354.356V132.62H348.523V138.078H344.96V124.016H348.523V129.787H354.356V124.016H357.94V138.078Z" fill="#186069"/>
<path d="M374.216 123.891C376.394 123.891 378.206 124.573 379.654 125.933C381.112 127.297 381.841 128.99 381.841 131.016C381.841 133.073 381.112 134.797 379.654 136.183C378.196 137.558 376.383 138.245 374.216 138.245C372.05 138.245 370.237 137.558 368.779 136.183C367.331 134.808 366.612 133.089 366.612 131.016C366.612 128.974 367.331 127.281 368.779 125.933C370.237 124.573 372.05 123.891 374.216 123.891ZM374.258 126.87C373.159 126.87 372.222 127.276 371.446 128.078C370.664 128.87 370.279 129.86 370.279 131.037C370.279 132.219 370.664 133.219 371.446 134.037C372.237 134.844 373.175 135.245 374.258 135.245C375.341 135.245 376.258 134.844 377.008 134.037C377.769 133.219 378.154 132.219 378.154 131.037C378.154 129.86 377.769 128.87 377.008 128.078C376.258 127.276 375.341 126.87 374.258 126.87Z" fill="#186069"/>
<path d="M390.521 124.016H396.646C398.438 124.016 399.823 124.443 400.813 125.287C401.813 126.136 402.313 127.344 402.313 128.912C402.313 130.568 401.813 131.849 400.813 132.766C399.823 133.672 398.438 134.12 396.646 134.12H394.083V138.078H390.521V124.016ZM394.083 126.828V131.308H396.458C397.25 131.308 397.86 131.115 398.292 130.724C398.719 130.339 398.938 129.776 398.938 129.037C398.938 128.318 398.719 127.766 398.292 127.391C397.86 127.016 397.25 126.828 396.458 126.828H394.083Z" fill="#186069"/>
<path d="M416.377 123.849C418.486 123.849 420.335 124.37 421.918 125.411L420.585 128.203C419.845 127.776 419.054 127.427 418.21 127.161C417.361 126.885 416.653 126.745 416.085 126.745C415.043 126.745 414.522 127.088 414.522 127.766C414.522 128.213 414.778 128.568 415.293 128.828C415.804 129.094 416.424 129.323 417.147 129.516C417.882 129.713 418.611 129.948 419.335 130.224C420.069 130.505 420.689 130.953 421.189 131.578C421.7 132.193 421.96 132.963 421.96 133.891C421.96 135.255 421.429 136.318 420.377 137.078C419.319 137.828 417.97 138.203 416.335 138.203C415.168 138.203 414.012 138.005 412.877 137.599C411.736 137.198 410.741 136.651 409.897 135.953L411.293 133.203C412.002 133.818 412.835 134.323 413.793 134.724C414.762 135.115 415.627 135.307 416.377 135.307C416.96 135.307 417.408 135.203 417.731 134.995C418.049 134.786 418.21 134.484 418.21 134.078C418.21 133.693 418.022 133.365 417.647 133.099C417.283 132.838 416.825 132.641 416.272 132.516C415.731 132.391 415.132 132.224 414.481 132.016C413.84 131.797 413.241 131.557 412.689 131.307C412.147 131.047 411.689 130.635 411.314 130.078C410.95 129.526 410.772 128.859 410.772 128.078C410.772 126.802 411.283 125.781 412.314 125.016C413.34 124.24 414.694 123.849 416.377 123.849Z" fill="#186069"/>
</svg>
