<svg width="235" height="89" viewBox="0 0 235 89" fill="none" xmlns="http://www.w3.org/2000/svg">
<path d="M26.4847 7.62778C19.4691 6.74237 12.4483 6.61737 5.37015 7.37258C-0.635056 7.94549 -0.702764 17.4247 5.37015 16.7945C7.26599 16.607 9.09932 16.5445 10.9327 16.4142C10.3649 25.7111 9.85974 34.9403 9.28682 44.1695C8.90661 50.2997 18.391 50.2372 18.7712 44.1695C19.3389 35.0028 19.8441 25.7736 20.417 16.5445C22.4379 16.6695 24.4587 16.857 26.4847 17.1122C32.5524 17.9351 32.4899 8.4507 26.4847 7.62778Z" fill="#186069"/>
<path d="M61.2533 6.93514C60.1804 12.3049 59.295 17.8049 58.5346 23.2424H49.7481C49.8731 21.8518 50.0658 20.5237 50.1908 19.1956C50.571 16.2893 50.5085 12.8101 51.5189 10.0914C53.67 4.40389 44.5033 1.87264 42.3523 7.56535C41.3419 10.4091 41.3419 13.8883 41.0241 16.857C40.5814 20.2112 40.2012 23.5601 39.821 26.9091C39.0033 33.8622 38.1804 40.8206 37.3575 47.7737C36.6596 53.7789 46.1439 53.7164 46.8419 47.7737C47.4096 42.7164 48.0398 37.7216 48.6127 32.7268H57.3366C56.8939 36.6435 56.5137 40.6279 56.196 44.5497C55.7533 50.6174 65.2377 50.6174 65.6804 44.5497C66.5658 32.7268 68.1439 21.0289 70.42 9.46118C71.5606 3.45597 62.4564 0.924725 61.2533 6.93514Z" fill="#186069"/>
<path d="M79.7133 12.18C78.4477 23.5602 77.4997 35.0029 76.8695 46.5081C76.4893 52.5758 85.9737 52.5758 86.3539 46.5081C86.9841 35.0029 87.932 23.5602 89.1977 12.18C89.8279 6.11225 80.3487 6.17475 79.7133 12.18Z" fill="#186069"/>
<path d="M120.238 12.81C119.228 19.6381 118.025 26.4037 116.759 33.1693L111.134 20.336C109.488 16.4141 103.483 17.8048 102.473 21.4714C99.8164 31.336 97.5404 41.2631 95.6445 51.3152C94.5091 57.2579 103.676 59.8464 104.811 53.8412C105.822 48.2787 107.025 42.7787 108.29 37.2787C110.311 41.8933 112.27 46.5079 114.296 51.06C115.936 54.8516 122.134 53.7162 122.957 49.9871C125.483 38.4766 127.634 26.9714 129.342 15.3412C130.228 9.33601 121.061 6.80476 120.238 12.81Z" fill="#186069"/>
<path d="M164.175 11.232C167.274 5.98202 159.055 1.17993 156.019 6.42472C153.998 9.90389 151.154 15.2789 147.42 17.4247C147.612 13.3831 147.737 9.27368 147.737 5.16431C147.8 -0.97111 138.315 -0.97111 138.253 5.16431C138.19 17.2372 137.435 29.3101 135.852 41.2633C135.472 43.8518 136.42 46.3206 139.138 47.1383C141.352 47.7737 144.638 46.3206 144.956 43.7893C145.716 38.5445 146.284 33.232 146.727 27.9195C150.013 30.956 152.102 35.1903 152.477 39.6174C153.05 45.6851 162.529 45.7476 161.961 39.6174C161.394 33.2945 159.055 27.732 155.133 23.1799C158.862 19.8935 161.711 15.4664 164.175 11.232Z" fill="#186069"/>
<path d="M195.848 30.6383C190.916 31.0185 186.046 31.7164 181.244 32.7893C182.067 24.9508 182.822 17.1748 183.583 9.39871C184.15 3.331 174.671 3.3935 174.098 9.39871C173.15 19.2581 172.14 29.1227 171.192 38.9873C170.874 42.081 174.478 44.357 177.197 43.5393C183.327 41.7685 189.525 40.6279 195.848 40.1227C201.916 39.68 201.978 30.1956 195.848 30.6383Z" fill="#186069"/>
<path d="M229.987 37.7216C225.623 37.5966 221.263 37.7216 216.961 38.1643C217.279 35.7633 217.659 33.357 217.972 30.8935C220.123 30.8935 222.274 31.0185 224.419 31.2112C227.013 31.4612 229.164 28.8674 229.164 26.4664C229.164 23.6851 227.013 21.9768 224.419 21.7268C222.779 21.6018 221.133 21.4716 219.43 21.4716C219.805 19.0081 220.248 16.5445 220.628 14.1383C223.852 14.1383 227.013 14.2008 230.237 14.456C236.305 14.8362 236.305 5.35181 230.237 4.9716C225.685 4.6591 221.071 4.5914 216.518 4.7216C214.748 4.7841 213.487 5.66952 212.727 6.80494C212.409 7.31015 212.159 7.94556 212.029 8.70077C209.946 20.2737 208.237 31.9039 206.784 43.6018C206.341 46.9508 210.133 48.5966 212.789 48.1539C218.477 47.2685 224.232 47.0133 229.987 47.206C236.055 47.456 236.055 37.9716 229.987 37.7216Z" fill="#186069"/>
<path d="M38.3984 88.0784H34.7109L32.1068 78.3492L29.4609 88.0784H25.7526L21.1484 74.0159H24.9609L27.7318 84.3492L30.4193 74.0159H33.9193L36.6693 84.3492L39.3776 74.0159H43.0443L38.3984 88.0784Z" fill="#186069"/>
<path d="M57.7697 73.8909C59.9468 73.8909 61.7593 74.5732 63.2072 75.9325C64.6655 77.2971 65.3947 78.9898 65.3947 81.0159C65.3947 83.0732 64.6655 84.7971 63.2072 86.1825C61.7489 87.5575 59.9364 88.245 57.7697 88.245C55.603 88.245 53.7905 87.5575 52.3322 86.1825C50.8843 84.8075 50.1655 83.0888 50.1655 81.0159C50.1655 78.9742 50.8843 77.2815 52.3322 75.9325C53.7905 74.5732 55.603 73.8909 57.7697 73.8909ZM57.8114 76.87C56.7124 76.87 55.7749 77.2763 54.9989 78.0784C54.2176 78.87 53.8322 79.8596 53.8322 81.0367C53.8322 82.219 54.2176 83.219 54.9989 84.0367C55.7905 84.844 56.728 85.245 57.8114 85.245C58.8947 85.245 59.8114 84.844 60.5614 84.0367C61.3218 83.219 61.7072 82.219 61.7072 81.0367C61.7072 79.8596 61.3218 78.87 60.5614 78.0784C59.8114 77.2763 58.8947 76.87 57.8114 76.87Z" fill="#186069"/>
<path d="M82.5539 88.0784L80.4497 84.12H77.6372V88.0784H74.0747V74.0159H80.3664C82.2257 74.0159 83.6632 74.443 84.6789 75.2867C85.6893 76.1357 86.1997 77.344 86.1997 78.9117C86.1997 81.0784 85.3507 82.5888 83.658 83.4325L86.6164 88.0784H82.5539ZM77.6372 81.3075H80.3664C81.1424 81.3075 81.7414 81.1148 82.158 80.7242C82.5851 80.3388 82.8039 79.7763 82.8039 79.0367C82.8039 78.318 82.5851 77.7659 82.158 77.3909C81.7414 77.0159 81.1424 76.8284 80.3664 76.8284H77.6372V81.3075Z" fill="#186069"/>
<path d="M104.585 88.0784L100.856 82.5575L98.981 84.62V88.0784H95.4185V74.0159H98.981V80.0992L104.377 74.0159H108.523L103.293 79.8284L108.856 88.0784H104.585Z" fill="#186069"/>
<path d="M122.62 73.8489C124.729 73.8489 126.578 74.3697 128.161 75.4114L126.828 78.203C126.089 77.776 125.297 77.427 124.453 77.1614C123.604 76.8853 122.896 76.7447 122.328 76.7447C121.286 76.7447 120.766 77.0885 120.766 77.7655C120.766 78.2135 121.021 78.5676 121.536 78.828C122.047 79.0937 122.667 79.3228 123.391 79.5155C124.125 79.7135 124.854 79.9478 125.578 80.2239C126.312 80.5051 126.932 80.953 127.432 81.578C127.943 82.1926 128.203 82.9635 128.203 83.8905C128.203 85.2551 127.672 86.3176 126.62 87.078C125.562 87.828 124.214 88.203 122.578 88.203C121.411 88.203 120.255 88.0051 119.12 87.5989C117.979 87.1978 116.984 86.651 116.141 85.953L117.536 83.203C118.245 83.8176 119.078 84.3228 120.036 84.7239C121.005 85.1145 121.87 85.3072 122.62 85.3072C123.203 85.3072 123.651 85.203 123.974 84.9947C124.292 84.7864 124.453 84.4843 124.453 84.078C124.453 83.6926 124.266 83.3645 123.891 83.0989C123.526 82.8385 123.068 82.6405 122.516 82.5155C121.974 82.3905 121.375 82.2239 120.724 82.0155C120.083 81.7968 119.484 81.5572 118.932 81.3072C118.391 81.0468 117.932 80.6353 117.557 80.078C117.193 79.526 117.016 78.8593 117.016 78.078C117.016 76.802 117.526 75.7812 118.557 75.0155C119.583 74.2395 120.937 73.8489 122.62 73.8489Z" fill="#186069"/>
<path d="M149.94 88.0784H146.356V82.62H140.523V88.0784H136.96V74.0159H140.523V79.7867H146.356V74.0159H149.94V88.0784Z" fill="#186069"/>
<path d="M166.216 73.8909C168.394 73.8909 170.206 74.5732 171.654 75.9325C173.112 77.2971 173.841 78.9898 173.841 81.0159C173.841 83.0732 173.112 84.7971 171.654 86.1825C170.196 87.5575 168.383 88.245 166.216 88.245C164.05 88.245 162.237 87.5575 160.779 86.1825C159.331 84.8075 158.612 83.0888 158.612 81.0159C158.612 78.9742 159.331 77.2815 160.779 75.9325C162.237 74.5732 164.05 73.8909 166.216 73.8909ZM166.258 76.87C165.159 76.87 164.222 77.2763 163.446 78.0784C162.664 78.87 162.279 79.8596 162.279 81.0367C162.279 82.219 162.664 83.219 163.446 84.0367C164.237 84.844 165.175 85.245 166.258 85.245C167.341 85.245 168.258 84.844 169.008 84.0367C169.769 83.219 170.154 82.219 170.154 81.0367C170.154 79.8596 169.769 78.87 169.008 78.0784C168.258 77.2763 167.341 76.87 166.258 76.87Z" fill="#186069"/>
<path d="M182.521 74.0159H188.646C190.438 74.0159 191.823 74.443 192.813 75.2867C193.813 76.1357 194.313 77.344 194.313 78.9117C194.313 80.568 193.813 81.8492 192.813 82.7659C191.823 83.6721 190.438 84.12 188.646 84.12H186.083V88.0784H182.521V74.0159ZM186.083 76.8284V81.3075H188.458C189.25 81.3075 189.86 81.1148 190.292 80.7242C190.719 80.3388 190.938 79.7763 190.938 79.0367C190.938 78.318 190.719 77.7659 190.292 77.3909C189.86 77.0159 189.25 76.8284 188.458 76.8284H186.083Z" fill="#186069"/>
<path d="M208.377 73.8489C210.486 73.8489 212.335 74.3697 213.918 75.4114L212.585 78.203C211.845 77.776 211.054 77.427 210.21 77.1614C209.361 76.8853 208.653 76.7447 208.085 76.7447C207.043 76.7447 206.522 77.0885 206.522 77.7655C206.522 78.2135 206.778 78.5676 207.293 78.828C207.804 79.0937 208.424 79.3228 209.147 79.5155C209.882 79.7135 210.611 79.9478 211.335 80.2239C212.069 80.5051 212.689 80.953 213.189 81.578C213.7 82.1926 213.96 82.9635 213.96 83.8905C213.96 85.2551 213.429 86.3176 212.377 87.078C211.319 87.828 209.97 88.203 208.335 88.203C207.168 88.203 206.012 88.0051 204.877 87.5989C203.736 87.1978 202.741 86.651 201.897 85.953L203.293 83.203C204.002 83.8176 204.835 84.3228 205.793 84.7239C206.762 85.1145 207.627 85.3072 208.377 85.3072C208.96 85.3072 209.408 85.203 209.731 84.9947C210.049 84.7864 210.21 84.4843 210.21 84.078C210.21 83.6926 210.022 83.3645 209.647 83.0989C209.283 82.8385 208.825 82.6405 208.272 82.5155C207.731 82.3905 207.132 82.2239 206.481 82.0155C205.84 81.7968 205.241 81.5572 204.689 81.3072C204.147 81.0468 203.689 80.6353 203.314 80.078C202.95 79.526 202.772 78.8593 202.772 78.078C202.772 76.802 203.283 75.7812 204.314 75.0155C205.34 74.2395 206.694 73.8489 208.377 73.8489Z" fill="#186069"/>
</svg>
