<svg width="235" height="273" viewBox="0 0 235 273" fill="none" xmlns="http://www.w3.org/2000/svg">
<path d="M26.6415 191.876C19.6258 190.99 12.605 190.865 5.52689 191.62C-0.478317 192.193 -0.546026 201.672 5.52689 201.042C7.42272 200.855 9.25606 200.792 11.0894 200.662C10.5217 209.959 10.0165 219.188 9.44356 228.417C9.06335 234.547 18.5477 234.485 18.9279 228.417C19.4956 219.251 20.0008 210.021 20.5738 200.792C22.5946 200.917 24.6154 201.105 26.6415 201.36C32.7092 202.183 32.6467 192.699 26.6415 191.876Z" fill="#186069"/>
<path d="M61.4101 191.183C60.3371 196.553 59.4517 202.053 58.6913 207.49H49.9048C50.0298 206.1 50.2226 204.771 50.3476 203.443C50.7278 200.537 50.6653 197.058 51.6757 194.339C53.8267 188.652 44.6601 186.12 42.509 191.813C41.4986 194.657 41.4986 198.136 41.1809 201.105C40.7382 204.459 40.358 207.808 39.9778 211.157C39.1601 218.11 38.3371 225.068 37.5142 232.021C36.8163 238.027 46.3007 237.964 46.9986 232.021C47.5663 226.964 48.1965 221.969 48.7694 216.975H57.4934C57.0507 220.891 56.6705 224.876 56.3528 228.798C55.9101 234.865 65.3944 234.865 65.8371 228.798C66.7226 216.975 68.3007 205.277 70.5767 193.709C71.7173 187.704 62.6132 185.173 61.4101 191.183Z" fill="#186069"/>
<path d="M79.87 196.428C78.6044 207.808 77.6565 219.251 77.0263 230.756C76.6461 236.824 86.1304 236.824 86.5106 230.756C87.1409 219.251 88.0888 207.808 89.3544 196.428C89.9846 190.36 80.5054 190.423 79.87 196.428Z" fill="#186069"/>
<path d="M120.395 197.058C119.385 203.886 118.181 210.652 116.916 217.417L111.291 204.584C109.645 200.662 103.64 202.053 102.629 205.719C99.9731 215.584 97.6971 225.511 95.8013 235.563C94.6659 241.506 103.833 244.094 104.968 238.089C105.978 232.527 107.181 227.027 108.447 221.527C110.468 226.141 112.426 230.756 114.452 235.308C116.093 239.099 122.291 237.964 123.114 234.235C125.64 222.724 127.791 211.219 129.499 199.589C130.385 193.584 121.218 191.053 120.395 197.058Z" fill="#186069"/>
<path d="M164.332 195.48C167.43 190.23 159.212 185.428 156.175 190.673C154.154 194.152 151.311 199.527 147.576 201.673C147.769 197.631 147.894 193.521 147.894 189.412C147.957 183.277 138.472 183.277 138.41 189.412C138.347 201.485 137.592 213.558 136.009 225.511C135.628 228.1 136.576 230.568 139.295 231.386C141.509 232.021 144.795 230.568 145.113 228.037C145.873 222.792 146.441 217.48 146.884 212.167C150.17 215.204 152.259 219.438 152.634 223.865C153.207 229.933 162.686 229.995 162.118 223.865C161.55 217.542 159.212 211.98 155.29 207.428C159.019 204.141 161.868 199.714 164.332 195.48Z" fill="#186069"/>
<path d="M196.005 214.886C191.073 215.266 186.203 215.964 181.401 217.037C182.224 209.199 182.979 201.423 183.739 193.647C184.307 187.579 174.828 187.641 174.255 193.647C173.307 203.506 172.297 213.37 171.349 223.235C171.031 226.329 174.635 228.605 177.354 227.787C183.484 226.016 189.682 224.876 196.005 224.37C202.073 223.928 202.135 214.443 196.005 214.886Z" fill="#186069"/>
<path d="M230.144 221.969C225.779 221.844 221.42 221.969 217.118 222.412C217.436 220.011 217.816 217.605 218.128 215.141C220.279 215.141 222.43 215.266 224.576 215.459C227.17 215.709 229.321 213.115 229.321 210.714C229.321 207.933 227.17 206.225 224.576 205.975C222.936 205.85 221.29 205.719 219.587 205.719C219.962 203.256 220.404 200.792 220.785 198.386C224.009 198.386 227.17 198.449 230.394 198.704C236.462 199.084 236.462 189.6 230.394 189.219C225.842 188.907 221.227 188.839 216.675 188.969C214.904 189.032 213.644 189.917 212.884 191.053C212.566 191.558 212.316 192.193 212.186 192.949C210.102 204.521 208.394 216.152 206.941 227.85C206.498 231.199 210.29 232.844 212.946 232.402C218.634 231.516 224.389 231.261 230.144 231.454C236.212 231.704 236.212 222.219 230.144 221.969Z" fill="#186069"/>
<path d="M38.5552 272.326H34.8677L32.2635 262.597L29.6177 272.326H25.9093L21.3052 258.264H25.1177L27.8885 268.597L30.576 258.264H34.076L36.826 268.597L39.5343 258.264H43.201L38.5552 272.326Z" fill="#186069"/>
<path d="M57.9264 258.139C60.1035 258.139 61.916 258.821 63.3639 260.18C64.8223 261.545 65.5514 263.238 65.5514 265.264C65.5514 267.321 64.8223 269.045 63.3639 270.43C61.9056 271.805 60.0931 272.493 57.9264 272.493C55.7598 272.493 53.9473 271.805 52.4889 270.43C51.041 269.055 50.3223 267.337 50.3223 265.264C50.3223 263.222 51.041 261.529 52.4889 260.18C53.9473 258.821 55.7598 258.139 57.9264 258.139ZM57.9681 261.118C56.8691 261.118 55.9316 261.524 55.1556 262.326C54.3743 263.118 53.9889 264.107 53.9889 265.285C53.9889 266.467 54.3743 267.467 55.1556 268.285C55.9473 269.092 56.8848 269.493 57.9681 269.493C59.0514 269.493 59.9681 269.092 60.7181 268.285C61.4785 267.467 61.8639 266.467 61.8639 265.285C61.8639 264.107 61.4785 263.118 60.7181 262.326C59.9681 261.524 59.0514 261.118 57.9681 261.118Z" fill="#186069"/>
<path d="M82.7106 272.326L80.6064 268.368H77.7939V272.326H74.2314V258.264H80.5231C82.3825 258.264 83.82 258.691 84.8356 259.535C85.846 260.383 86.3564 261.592 86.3564 263.16C86.3564 265.326 85.5075 266.837 83.8148 267.68L86.7731 272.326H82.7106ZM77.7939 265.555H80.5231C81.2992 265.555 81.8981 265.363 82.3148 264.972C82.7419 264.587 82.9606 264.024 82.9606 263.285C82.9606 262.566 82.7419 262.014 82.3148 261.639C81.8981 261.264 81.2992 261.076 80.5231 261.076H77.7939V265.555Z" fill="#186069"/>
<path d="M104.742 272.326L101.013 266.805L99.1377 268.868V272.326H95.5752V258.264H99.1377V264.347L104.534 258.264H108.679L103.45 264.076L109.013 272.326H104.742Z" fill="#186069"/>
<path d="M122.777 258.097C124.886 258.097 126.735 258.618 128.318 259.659L126.985 262.451C126.245 262.024 125.454 261.675 124.61 261.409C123.761 261.133 123.053 260.993 122.485 260.993C121.443 260.993 120.922 261.336 120.922 262.013C120.922 262.461 121.178 262.815 121.693 263.076C122.204 263.341 122.823 263.571 123.547 263.763C124.282 263.961 125.011 264.196 125.735 264.472C126.469 264.753 127.089 265.201 127.589 265.826C128.099 266.44 128.36 267.211 128.36 268.138C128.36 269.503 127.829 270.565 126.777 271.326C125.719 272.076 124.37 272.451 122.735 272.451C121.568 272.451 120.412 272.253 119.277 271.847C118.136 271.446 117.141 270.899 116.297 270.201L117.693 267.451C118.402 268.065 119.235 268.571 120.193 268.972C121.162 269.362 122.027 269.555 122.777 269.555C123.36 269.555 123.808 269.451 124.131 269.243C124.448 269.034 124.61 268.732 124.61 268.326C124.61 267.94 124.422 267.612 124.047 267.347C123.683 267.086 123.224 266.888 122.672 266.763C122.131 266.638 121.532 266.472 120.881 266.263C120.24 266.045 119.641 265.805 119.089 265.555C118.547 265.295 118.089 264.883 117.714 264.326C117.349 263.774 117.172 263.107 117.172 262.326C117.172 261.05 117.683 260.029 118.714 259.263C119.74 258.487 121.094 258.097 122.777 258.097Z" fill="#186069"/>
<path d="M150.096 272.326H146.513V266.868H140.68V272.326H137.117V258.264H140.68V264.035H146.513V258.264H150.096V272.326Z" fill="#186069"/>
<path d="M166.373 258.139C168.55 258.139 170.363 258.821 171.811 260.18C173.269 261.545 173.998 263.238 173.998 265.264C173.998 267.321 173.269 269.045 171.811 270.43C170.352 271.805 168.54 272.493 166.373 272.493C164.207 272.493 162.394 271.805 160.936 270.43C159.488 269.055 158.769 267.337 158.769 265.264C158.769 263.222 159.488 261.529 160.936 260.18C162.394 258.821 164.207 258.139 166.373 258.139ZM166.415 261.118C165.316 261.118 164.378 261.524 163.602 262.326C162.821 263.118 162.436 264.107 162.436 265.285C162.436 266.467 162.821 267.467 163.602 268.285C164.394 269.092 165.332 269.493 166.415 269.493C167.498 269.493 168.415 269.092 169.165 268.285C169.925 267.467 170.311 266.467 170.311 265.285C170.311 264.107 169.925 263.118 169.165 262.326C168.415 261.524 167.498 261.118 166.415 261.118Z" fill="#186069"/>
<path d="M182.678 258.264H188.803C190.594 258.264 191.98 258.691 192.969 259.535C193.969 260.383 194.469 261.592 194.469 263.16C194.469 264.816 193.969 266.097 192.969 267.014C191.98 267.92 190.594 268.368 188.803 268.368H186.24V272.326H182.678V258.264ZM186.24 261.076V265.555H188.615C189.407 265.555 190.016 265.363 190.449 264.972C190.876 264.587 191.094 264.024 191.094 263.285C191.094 262.566 190.876 262.014 190.449 261.639C190.016 261.264 189.407 261.076 188.615 261.076H186.24Z" fill="#186069"/>
<path d="M208.533 258.097C210.643 258.097 212.492 258.618 214.075 259.659L212.742 262.451C212.002 262.024 211.21 261.675 210.367 261.409C209.518 261.133 208.809 260.993 208.242 260.993C207.2 260.993 206.679 261.336 206.679 262.013C206.679 262.461 206.934 262.815 207.45 263.076C207.96 263.341 208.58 263.571 209.304 263.763C210.039 263.961 210.768 264.196 211.492 264.472C212.226 264.753 212.846 265.201 213.346 265.826C213.856 266.44 214.117 267.211 214.117 268.138C214.117 269.503 213.585 270.565 212.533 271.326C211.476 272.076 210.127 272.451 208.492 272.451C207.325 272.451 206.169 272.253 205.033 271.847C203.893 271.446 202.898 270.899 202.054 270.201L203.45 267.451C204.158 268.065 204.992 268.571 205.95 268.972C206.919 269.362 207.783 269.555 208.533 269.555C209.117 269.555 209.565 269.451 209.888 269.243C210.205 269.034 210.367 268.732 210.367 268.326C210.367 267.94 210.179 267.612 209.804 267.347C209.44 267.086 208.981 266.888 208.429 266.763C207.888 266.638 207.289 266.472 206.638 266.263C205.997 266.045 205.398 265.805 204.846 265.555C204.304 265.295 203.846 264.883 203.471 264.326C203.106 263.774 202.929 263.107 202.929 262.326C202.929 261.05 203.44 260.029 204.471 259.263C205.497 258.487 206.851 258.097 208.533 258.097Z" fill="#186069"/>
<path d="M167.958 69.0052C166.062 61.0261 160.401 54.0886 153.416 49.9011C144.567 44.6042 133.89 43.2448 123.719 43.7136C114.974 44.1042 106.271 45.6771 98.2081 49.1511C83.4477 55.5157 72.13 69.4323 73.3487 86.1042C73.6716 90.3282 74.8175 94.474 76.9998 98.0886C79.5831 102.313 83.2706 105.354 87.2498 108.177C95.0206 113.651 105.088 122.38 102.224 132.719C101.828 132.646 101.432 132.578 101.005 132.505C98.1716 132.005 97.2081 136.943 100.073 137.547C108.385 139.302 116.948 140.089 125.437 139.411C126.87 139.302 128.661 138.339 128.515 136.583C127.729 127.172 131.094 117.729 138.187 111.365C141.916 108.036 146.286 105.568 150.406 102.74C154.203 100.13 157.677 97.2292 160.651 93.724C166.599 86.9636 170.073 77.9844 167.958 69.0052ZM155.781 90.5052C148.864 98.2344 138.62 101.776 131.739 109.5C125.724 116.266 122.64 124.885 122.64 133.792C116.406 134.151 110.245 133.938 104.047 133.042C106.271 126.891 104.552 119.948 100.896 114.474C98.3904 110.719 95.0571 107.818 91.5466 105.031C88.1456 102.349 84.4894 99.6979 82.2341 95.8698C74.531 82.8854 81.6612 66.4271 93.1925 58.5209C99.9268 53.9063 107.953 51.474 115.942 50.2604C125.151 48.8646 135.109 48.8646 144.031 51.9063C151.661 54.5157 158.609 59.9532 161.51 67.6823C164.557 75.8386 161.37 84.2813 155.781 90.5052Z" fill="#E29578"/>
<path d="M127.047 95.5834C123.859 95.1198 122.177 97.7344 121.067 100.271C121.031 100.234 121.031 100.234 120.995 100.198C123.823 95.0105 125.505 87.823 121.64 83.099C120.885 82.1719 119.526 82.2396 118.666 82.9219C116.156 84.8907 115.765 88.2136 115.479 91.2188C115.192 94.0105 115.26 96.9115 116.338 99.4844C115.979 100.021 115.62 100.521 115.192 100.99C114.041 96.4792 111.036 91.7917 105.838 94.1198C101.109 96.2657 100.609 103.203 104.62 106.245C106.807 107.891 109.245 108.287 111.609 107.818C111.859 114.151 110.854 120.234 109.458 126.385C109.099 127.891 111.073 128.5 111.713 127.104C111.786 126.958 111.823 126.854 111.896 126.708C112.323 128.354 115.083 128.891 115.656 126.854C116.911 122.24 118.307 117.656 119.812 113.115C120.526 111.005 121.245 108.896 121.995 106.781C122.213 106.177 122.427 105.531 122.64 104.885C123.146 104.958 123.646 104.995 124.182 104.958C126.724 104.781 129.234 103.203 129.984 100.703C130.666 98.5209 129.557 95.9428 127.047 95.5834ZM119.489 89.1823C119.63 90.5782 119.453 92.0417 119.057 93.474C119.094 93.0469 119.094 92.6146 119.166 92.1875C119.239 91.3282 119.276 90.2188 119.489 89.1823ZM106.916 100.234C107.416 98.3021 108.922 98.198 109.995 99.8438C110.677 100.88 111.036 102.094 111.286 103.349C111.036 103.385 110.75 103.422 110.463 103.422C108.562 103.526 106.344 102.453 106.916 100.234ZM115.083 115.943C115.62 112.688 115.833 109.359 115.797 106.141C117.015 105.354 118.13 104.349 119.026 103.24C119.203 103.422 119.416 103.563 119.599 103.708C117.984 107.714 116.479 111.828 115.083 115.943ZM126.583 100.167C126.224 101.057 124.864 101.557 123.896 101.557C124.109 101.094 124.328 100.667 124.541 100.234C124.791 99.6303 125.187 99.125 125.76 98.7344C126.87 98.875 127.156 99.3438 126.583 100.167Z" fill="#E29578"/>
<path d="M124.255 144.063C122.354 143.271 120.136 143.344 118.094 143.24C115.834 143.13 113.578 143.094 111.323 143.203C107.307 143.38 102.865 143.453 99.1044 144.886C97.1356 145.636 98.245 148.208 99.8596 148.458C103.797 149.031 107.953 148.568 111.969 148.854C113.901 148.995 115.87 149.141 117.807 149.391C119.886 149.641 121.854 150.141 123.969 149.854C127.193 149.427 126.724 145.099 124.255 144.063Z" fill="#E29578"/>
<path d="M118.807 152.859C116.193 151.536 112.469 152.073 109.635 152.073C106.271 152.073 102.974 152.323 99.6405 152.792C97.5988 153.073 98.2446 155.76 99.9269 156.078C102.328 156.51 104.693 156.901 107.094 157.26C106.307 158.583 105.911 160.125 106.161 161.516C107.13 166.74 113.651 168.818 117.875 166.026C121.927 163.271 124.073 155.474 118.807 152.859ZM112.932 160.375C111.677 160.193 113.114 159.156 113.901 158.943C114.401 158.797 114.76 158.547 115.047 158.229C115.156 158.229 115.224 158.193 115.193 158.156C115.765 159.406 113.828 160.516 112.932 160.375Z" fill="#E29578"/>
<path d="M100.109 33.6613C100.609 36.3436 104.588 35.9113 104.765 33.2655C105.161 28.0415 104.193 22.5311 103.797 17.3124C103.406 12.1561 103.187 6.96863 102.474 1.85405C102.187 -0.182411 98.927 0.104047 98.8905 2.14051C98.7447 7.43738 99.1405 12.7655 99.3228 18.0624C99.4999 23.177 99.177 28.6145 100.109 33.6613Z" fill="#E29578"/>
<path d="M64.4269 53.3698C62.0623 52.0468 59.7707 50.651 57.5155 49.151C53.0728 46.2187 48.8436 42.927 44.8696 39.3854C42.6821 37.4166 39.1717 40.3854 41.3592 42.4948C45.4061 46.3958 49.6665 50.0104 54.255 53.2291C56.4373 54.802 58.6978 56.2708 61.0259 57.6666C63.3905 59.0937 65.9321 60.9895 68.729 61.2083C70.8384 61.3854 71.9842 58.7031 70.6248 57.1979C69.0467 55.4114 66.505 54.552 64.4269 53.3698Z" fill="#E29578"/>
<path d="M60.7393 88.4688C63.281 87.75 63.1039 83.9584 60.3435 83.8177C55.0779 83.4948 49.38 85.1042 44.2966 86.4271C41.7498 87.1042 39.281 87.823 36.8071 88.6823C34.3018 89.5417 31.6143 90.2917 29.4633 91.8646C27.7081 93.1511 29.4633 95.4428 31.1821 95.2292C33.5831 94.9428 35.9112 93.8698 38.2393 93.1511C40.7498 92.4011 43.255 91.724 45.7966 91.1511C50.6716 90.0417 55.8643 89.8282 60.7393 88.4688Z" fill="#E29578"/>
<path d="M150.37 36.1615C154.885 28.224 160.219 21.1042 167.099 15.0573C169.896 12.5885 166.026 8.26042 163.266 10.7292C156.068 17.2396 150.12 25.25 146.536 34.3021C145.677 36.5573 149.151 38.276 150.37 36.1615Z" fill="#E29578"/>
<path d="M205.537 65.2499C200.271 65.0676 194.901 66.9322 190.026 68.7187C184.974 70.578 180.354 73.1197 176.057 76.302C174.156 77.6978 176.307 80.7395 178.349 79.6666C182.646 77.3385 187.162 75.2655 191.818 73.6926C196.474 72.1145 201.313 71.6145 205.969 70.1874C208.547 69.3958 208.511 65.3541 205.537 65.2499Z" fill="#E29578"/>
<path d="M62.8491 116.12C56.62 122.38 50.995 129.177 46.0835 136.474C43.9741 139.588 49.021 142.88 50.9585 139.698C55.2554 132.469 60.1668 125.635 65.7189 119.338C67.5106 117.338 64.8595 114.115 62.8491 116.12Z" fill="#E29578"/>
<path d="M190.672 133.974C186.875 131 182.542 128.604 178.453 126.031C174.406 123.453 170.323 120.521 165.99 118.412C164.234 117.552 161.656 119.734 163.479 121.307C167.135 124.49 171.365 127.104 175.339 129.859C179.422 132.682 183.469 135.87 187.807 138.302C190.745 139.912 193.323 136.01 190.672 133.974Z" fill="#E29578"/>
</svg>
